<svg xmlns="http://www.w3.org/2000/svg" xmlns:xlink="http://www.w3.org/1999/xlink" preserveAspectRatio="xMidYMid" width="826" height="361" viewBox="0 0 826 361">
  <defs>
    <style>
      .cls-1, .cls-2 {
        font-size: 100px;
      }

      .cls-2 {
        fill: #267171;
        text-anchor: middle;
        font-family: "Gadugi";
      }

      .cls-3 {
        fill: #33b8b8;
        stroke-width: 3px;
      }

      .cls-3, .cls-4 {
        stroke: #33b8b8;
        fill-rule: evenodd;
      }

      .cls-4 {
        stroke-width: 9px;
        fill: none;
      }
    </style>
  </defs>
  <g>
    <text transform="translate(603 166) scale(1.1 0.94)" class="cls-1"><tspan x="0" class="cls-2">Project </tspan><tspan dy="1.2em" x="0" class="cls-2">Manager</tspan></text>
    <path d="M234.500,205.000 C228.149,205.000 223.000,199.851 223.000,193.500 C223.000,187.149 228.149,182.000 234.500,182.000 C240.851,182.000 246.000,187.149 246.000,193.500 C246.000,199.851 240.851,205.000 234.500,205.000 ZM179.500,205.000 C173.149,205.000 168.000,199.851 168.000,193.500 C168.000,187.149 173.149,182.000 179.500,182.000 C185.851,182.000 191.000,187.149 191.000,193.500 C191.000,199.851 185.851,205.000 179.500,205.000 ZM124.500,205.000 C118.149,205.000 113.000,199.851 113.000,193.500 C113.000,187.149 118.149,182.000 124.500,182.000 C130.851,182.000 136.000,187.149 136.000,193.500 C136.000,199.851 130.851,205.000 124.500,205.000 Z" class="cls-3"/>
    <path d="M180.000,355.000 C144.758,355.000 111.984,344.453 84.644,326.356 L84.000,327.000 L80.000,329.000 L76.000,333.000 L72.000,335.000 L67.000,338.000 L63.000,340.000 L58.000,342.000 L52.000,344.000 L46.000,346.000 L42.000,347.000 L37.000,348.000 L32.000,349.000 L27.000,349.000 L23.000,349.000 L20.000,348.000 L18.000,345.000 L17.000,342.000 L19.000,338.000 L22.000,335.000 L26.000,333.000 L30.000,330.000 L33.000,327.000 L37.000,324.000 L40.000,320.000 L44.000,316.000 L47.000,313.000 L54.077,300.615 C24.893,269.644 7.000,227.914 7.000,182.000 C7.000,86.455 84.455,9.000 180.000,9.000 C275.545,9.000 353.000,86.455 353.000,182.000 C353.000,277.545 275.545,355.000 180.000,355.000 Z" class="cls-4"/>
  </g>
</svg>
